<svg width="430" height="233" viewBox="0 0 430 233" fill="none" xmlns="http://www.w3.org/2000/svg">
<g clip-path="url(#clip0_25_97)">
<rect width="430" height="233" fill="#1D1933"/>
<path d="M430 -17.7312V-19.1717L397.578 -16.0342L396.299 -24.8914L411.214 -26.3126L411.181 -26.6666H399.818L394.665 -26.1757L396.15 -15.8958L391.503 -15.4458L380.94 -18.9044L385.579 -26.6666H383.909L379.544 -19.3616L374.232 -21.101L377.565 -26.6666H375.895L372.835 -21.5582L367.714 -23.2352L369.741 -26.6666H368.077L366.319 -23.6917L357.234 -26.6666H352.332L341.65 -17.355L336.733 -23.2309L340.794 -26.6666H338.575L335.814 -24.3303L333.859 -26.6666H331.99L334.719 -23.4044L288.152 15.9973L280.732 8.39344L312.87 -19.6347L317.162 -14.1085L330.366 -26.6666H328.286L317.322 -16.2384L313.952 -20.5785L320.932 -26.6666H318.752L313.071 -21.7123L310.669 -24.804L312.692 -26.6666H310.576L308.729 -24.9653L311.989 -20.7685L300.301 -10.5753V-26.6666H298.868V-22.363L265.431 -7.24065L260.736 -21.7668L271.16 -26.6666H263.915L264.028 -26.4817L240.642 -15.4895L234.65 -26.6666H226.495L188.055 -8.40882L182.81 -15.3003L195.972 -24.7044L200.802 -19.3781L211.974 -26.6666H209.351L201.043 -21.2465L196.177 -26.6122L181.942 -16.4412L174.159 -26.6666H171.872L144.939 0.464956L139.562 -3.95473L161.82 -26.6666H159.813L138.45 -4.86848L132.915 -9.4186L148.587 -26.6666H146.65L131.222 -9.68735H114.482L126.3 -21.6729L91.322 -20.6925L94.1306 -26.6666H92.5468L88.8653 -18.8356L74.1564 -10.1482L60.372 -26.6666H58.5051L72.9058 -9.41L61.3546 -2.58733L43.2595 -26.6666H41.4656L50.0943 -15.1849L37.2094 -6.87945L22.4467 -26.6666H20.6579L36.0018 -6.10043L22.9978 2.28171L1.69062 -26.6666H0V-26.5448L8.34487 -15.2078L0 -10.1668V-8.49195L9.19842 -14.0483L14.9131 -6.2839L0 2.51606V4.18016L15.7674 -5.12361L19.9335 0.53648L0 12.3645V14.0329L20.7839 1.69175L26.7496 9.79668L0 25.7346V27.403L27.6031 10.9562L31.3442 16.0381L0 36.3807V38.0893L32.7366 16.8429L37.605 14.2243L30.854 33.6015L11.5462 42.0044L26.3339 55.0091L26.2952 55.4749L0 66.5417V69.6513L26.0265 58.6985L25.2245 68.3333L0 78.9257V80.4801L25.0898 69.9444L22.9885 95.1811L10.9793 88.0625L0 90.2354V94.6192L10.2018 92.6004L21.3352 99.1995L0 121.899V123.993L22.5987 99.9484L33.6783 106.516L0 143.9V147.124L19.9169 166.329L13.4698 173.598L23.1311 183.677L0 206.123V208.12L8.86231 199.52L22.7549 220.094L13.3271 226.813L0 221.688V223.224L11.9275 227.81L0 236.31V239.83L15.136 229.044L20.9589 231.283L0 246.653V250.208L24.1467 232.5L54.3241 243.889L46.8048 260H48.3872L55.6944 244.342L68.9663 247.963L69.6428 248.233L69.6737 248.156L79.5995 250.864L79.8432 250.957L79.8525 250.933L113.082 260H118.527L93.3746 253.137L97.3012 241.38L141.226 254.242L140.3 260H143.203L148.506 227.026L170.21 229.611L168.465 260H169.901L171.635 229.781L190.502 232.027V260H191.935V232.198L210.864 234.452L211.344 260H212.778L212.3 234.624L219.731 235.509V256.476H230.575V260H232.009V255.042H221.164V246.753L271.431 238.535L272.503 249.938L263.966 251.894L265.232 260H266.683L265.588 252.993L272.639 251.378L273.449 260H274.889L272.849 238.303L302.928 233.385L304.414 248.574L324.647 246.915L326.127 260H327.57L325.916 245.373L305.703 247.03L304.346 233.153L315.635 231.308L351.385 249.467L347.011 260H348.563L353.218 248.79L318.029 230.916L323.435 230.032L365.238 249.584V256.432L366.951 256.787L382.471 260H403.677L369.538 252.931V246.848L353.75 239.464L356.895 231.587L407.692 260H410.628L400.661 254.425L415.714 218.922L428.79 226.29L414.355 260H415.915L421.415 247.156L430 251.918V250.279L421.981 245.832L430 227.105V225.328L387.361 201.299L395.812 183.338L372.793 171.069L375.675 165.055L399.056 176.678L430 222.786V220.214L400.14 175.722L400.034 175.563L375.011 163.124L371.527 170.394L315.747 140.663L325.929 127.795L430 183.376V181.751L408.656 170.352L416.847 156.954L423.057 160.3L418.282 168.689L430 174.856V173.235L420.261 168.111L424.319 160.98L430 164.042V162.415L417.595 155.729L425.322 143.091L430 145.755V144.105L415.435 135.813L426.848 118.419L415.395 112.029L428.955 92.1073L430 92.647V91.033L418.248 84.9614L427.804 48.8694L430 48.4616V44.0885L420.504 45.8501L403.663 29.9157L410.047 24.0641L430 41.8424V39.9225L411.109 23.0909L430 5.77259V3.82828L407.05 24.8675L397.214 15.5099L413.042 -3.13916L430 -7.57533V-10.538L426.857 -9.71601H398.721L392.23 -7.53305L390.682 -11.5041L391.895 -14.044L430 -17.7312ZM380.186 -17.6431L390.424 -14.2912L382.73 1.82734L365.922 6.22409L380.186 -17.6431ZM290.309 105.832L316.582 87.7407L324.515 93.7248L300.696 110.066L290.309 105.832ZM299.281 111.037L298.541 111.544L292.146 108.129L299.281 111.037ZM352.465 210.172L346.44 207.227L356.845 185.748L362.612 188.998L352.465 210.172ZM363.863 189.703L370.657 193.531L362.037 214.849L353.753 210.801L363.863 189.703ZM345.152 206.598L333.113 200.715L343.56 178.261L355.594 185.043L345.152 206.598ZM67.8325 163.649L71.9813 166.288L66.5992 175.466L62.6202 172.364L67.8325 163.649ZM60.3427 170.587L55.3711 166.71L45.6947 173.382L41.5846 167.681L54.7935 154.796L65.4367 162.069L60.3427 170.587ZM73.0298 12.9493L76.0355 11.2902L82.0089 10.762L91.9799 27.8309L79.2598 33.1844L68.3371 15.4318L73.0406 12.9636L73.0298 12.9493ZM290.54 199.251L279.81 193.914L286.48 179.522L297.171 184.747L290.54 199.251ZM298.46 185.376L308.256 190.163L298.306 213.532L287.829 208.631L298.46 185.376ZM277.923 194.576L289.944 200.556L286.531 208.024L266.399 198.608L272.618 186.341L260.465 179.627L264.425 168.744L285.192 178.892L277.923 194.576ZM258.7 180.289L270.714 186.927L265.1 198.001L240.276 186.39L249.218 161.313L263.13 168.111L258.7 180.289ZM238.972 185.78L223.185 178.396L232.992 153.384L247.922 160.68L238.972 185.78ZM223.335 166.234L205.367 139.407L207.74 127.992L235.019 106.021L242.54 117.327L242.496 117.363L223.335 166.234ZM211.139 204.575L159.782 189.487L164.562 179.637L172.031 176.116L172.559 176.495L193.923 169.457L220.02 181.663L211.139 204.575ZM216.478 194.767L255.508 205.96L253.598 217.05L212.518 204.981L216.478 194.767ZM146.543 166.192C128.233 157.019 100.677 143.085 98.6815 141.724C98.6041 141.623 98.4987 141.542 98.3719 141.493C98.1275 141.398 97.7505 141.417 97.4911 141.786C97.4646 141.825 97.433 141.873 97.3922 141.939C97.3248 142.048 97.2331 142.203 97.1113 142.413C96.8927 142.79 96.5781 143.345 96.1767 144.063C95.5016 145.268 94.5692 146.952 93.4061 149.067C91.9011 151.803 90.3896 154.568 89.7418 155.755L83.3111 152.632L96.7544 129.704L115.742 126.632C127.548 134.407 140.137 142.913 142.757 145.011C142.817 146.559 142.768 150.524 142.674 153.908L142.643 155.05L169.363 174.204L162.425 177.476L160.89 180.637L144.881 172.41L147.121 166.482L146.543 166.192ZM75.1268 166.591L82.5837 153.872L102 163.3L95.5095 179.56L75.1268 166.591ZM94.9691 180.915L81.6807 214.208L69.7475 210.672L80.0445 185.952L68.8796 177.245L74.4015 167.828L94.9691 180.915ZM68.6954 122.273L54.5384 113.882L60.104 79.8172L75.8176 114.202L66.969 118.286L68.6954 122.273ZM62.6381 43.2901L75.7818 37.7582L79.3551 45.6021L66.5941 50.9606L62.6381 43.2901ZM65.269 51.5174L42.2533 61.1824L43.5404 51.3275L61.313 43.8477L65.269 51.5174ZM203.303 16.8838L213.604 12.1703L223.693 28.8443L218.837 41.7514L198.431 41.2146L193.699 31.2745L204.798 20.1948L203.303 16.8838ZM222.256 78.3574L117.172 122.424L116.709 122.12L113.496 122.64L108.736 113.24L158.354 91.4989L153.849 82.9756L213.747 57.4163L221.012 70.1157L219.254 71.4709L222.256 78.3574ZM149.723 111.883L172.436 102.359L186.699 114.103L164.465 123.374L149.723 111.883ZM162.946 124.008L136.227 135.149C134.834 134.201 133.299 133.164 131.631 132.041C127.211 129.069 122.769 126.122 120.052 124.325L148.206 112.519L162.946 124.008ZM209.119 106.307L212.012 111.051L220.371 105.648L225.287 110.159L233.498 103.735L234.222 104.822L206.64 127.037L206.44 127.197L204.131 138.307L178.461 119.091L209.119 106.307ZM225.361 108.282L220.523 103.842L212.47 109.049L210.032 105.05L207.221 99.8731L224.265 89.8541L232.702 102.538L225.361 108.282ZM205.301 99.3392L208.402 105.052L188.196 113.478L173.929 101.731L219.464 82.6366L223.47 88.6587L205.301 99.3392ZM96.2455 80.455L110.238 74.3017L121.033 95.4212L103.5 102.902L97.4746 91.0058L100.205 89.695L96.2455 80.455ZM166.901 48.1957L156.173 53.0948L150.246 41.1638L161.272 36.1177L161.254 36.213L166.901 48.1957ZM127.661 55.6426L131.007 62.0374L118.891 67.3651L115.642 61.1172L127.661 55.6426ZM114.98 59.8437L114.032 58.0212L126.105 52.6706L126.995 54.3712L114.98 59.8437ZM138.965 61.6698L143.295 69.9946L116.048 82.519L111.552 73.7241L138.965 61.6698ZM143.958 71.2681L146.593 76.3349L159.508 70.5399L162.94 77.5382L122.354 94.8572L116.701 83.7969L143.958 71.2681ZM160.185 68.6651L147.24 74.4737L140.214 60.9653L140.24 60.8714L158.785 61.5744L158.873 61.75L159.195 61.5902L173.469 62.1306L177.751 71.2179L164.26 76.9749L160.185 68.6651ZM168.816 48.8966L181.383 43.1568L191.866 65.195L179.071 70.6553L168.816 48.8966ZM172.781 60.6707L159.691 60.1741L156.812 54.3791L167.512 49.4922L172.781 60.6707ZM158.059 60.1124L140.617 59.4517L144.814 43.6492L148.941 41.76L158.059 60.1124ZM142.658 40.6012L139.48 34.4636L144.979 31.86L142.658 40.6012ZM142.11 42.6616L137.751 59.0718L132.322 61.4591L122.42 42.5398L138.184 35.0771L142.11 42.6616ZM125.439 51.3985L113.369 56.747L109.228 48.7862L121.124 43.1539L125.439 51.3985ZM117.576 67.9427L95.5246 77.64L87.1431 59.2417L107.932 49.3997L117.576 67.9427ZM152.526 83.5403L156.366 90.8051L108.088 111.96L104.149 104.184L152.526 83.5403ZM213.489 55.968L193.186 64.6318L182.592 42.3613L187.84 37.1225L193.714 48.8321L216.024 49.2284L213.489 55.968ZM194.607 47.4145L188.908 36.0561L192.623 32.348L197.515 42.6243L218.303 43.1712L216.56 47.8044L194.607 47.4145ZM181.312 41.6131L168.205 47.6002L162.749 36.0224L162.868 35.3874L201.999 17.4801L203.083 19.8809L181.312 41.6131ZM161.597 34.3927L145.291 41.8546L148.131 31.1634L163.571 23.905L161.597 34.3927ZM145.461 30.0461L86.549 57.9366L83.3477 50.909L138.889 25.5003L145.467 30.0232L145.461 30.0461ZM114.252 35.1946L107.918 24.2339L111.131 22.8816L118.08 28L119.757 27.2031L122.166 31.574L114.252 35.1946ZM112.942 35.7938L103.993 39.8881L97.8745 28.4608L106.586 24.7944L112.942 35.7938ZM102.687 40.4851L96.8475 43.1568L90.8985 31.3963L96.5472 29.0191L102.687 40.4851ZM95.5432 43.7538L89.8937 46.3381L83.744 34.4077L89.5741 31.9539L95.5432 43.7538ZM88.5887 46.9351L82.7535 49.6047L77.1033 37.202L82.4189 34.9653L88.5887 46.9351ZM65.7743 38.8597L61.4793 31.4852L73.4842 26.5323L77.9232 33.747L65.7743 38.8597ZM79.9492 46.9071L94.2123 78.2169L92.4916 78.9737L96.4885 88.2997L79.8432 96.2891L86.2982 109.365L77.1191 113.602L60.7318 77.7425L76.8102 70.7657L67.2535 52.2384L79.9492 46.9071ZM90.1718 110.734L83.6967 97.6192L96.1817 91.6264L112.011 122.88L75.7574 128.745L73.8468 125.327L72.8979 124.764L70.7121 119.715L90.1718 110.734ZM93.0829 130.298L80.7691 151.3L76.6196 148.955L87.2084 131.248L93.0829 130.298ZM219.282 176.571L194.199 164.839L173.289 171.727L147.001 152.884C147.022 152.002 147.049 150.714 147.067 149.396C147.132 144.392 146.998 143.855 146.909 143.5C146.702 142.669 146.143 142.179 144.821 141.178C144.043 140.588 142.921 139.779 141.484 138.772C140.392 138.006 139.107 137.117 137.64 136.113L164.244 125.019L221.881 169.943L219.282 176.571ZM165.763 124.386L176.925 119.731L204.076 140.057L222.698 167.859L222.426 168.551L165.763 124.386ZM220.81 82.0718L224.151 80.6715L230.573 93.034L240.965 100.206L238.621 108.847L220.81 82.0718ZM225.54 78.7164L241.4 62.4115L249.379 69.1912L246.519 79.7312L228.088 85.1413L225.477 80.1153L226.045 79.8767L225.54 78.7164ZM224.921 77.2974L222.775 72.3761L250.446 51.0559L224.921 77.2974ZM231.68 92.0572L228.761 86.4378L246.079 81.3545L241.363 98.7394L231.68 92.0572ZM247.692 80.8807L269.125 74.5898L270.8 81.3322L245.792 87.8854L247.692 80.8807ZM248.132 79.2575L251 68.6881L242.402 61.3817L258.427 44.9062L261.219 42.7555L268.78 73.1973L248.132 79.2575ZM222.158 69.2327L214.842 56.4438L225.279 28.6973V28.6966L234.706 3.48643L237.469 19.3341L257.778 22.7641L258.936 26.0055L260.6 39.6136L222.158 69.2327ZM224.333 27.1336L214.169 10.3349L202.713 15.5773L198.963 7.26971L232.607 -8.54498L234.219 0.695007L224.333 27.1336ZM201.409 16.1743L163.193 33.6624L165.172 23.1532L197.665 7.8796L201.409 16.1743ZM176.714 14.5604L170.051 3.31514L177.183 -0.0718269L183.956 11.1562L176.714 14.5604ZM175.41 15.1731L169.711 17.852L162.915 6.70498L168.751 3.93291L175.41 15.1731ZM168.406 18.4655L163.023 20.9953L155.843 10.064L161.613 7.32346L168.406 18.4655ZM161.713 21.6109L146.3 28.8564L139.031 23.8591L123.473 30.9763L121.054 26.5868L154.536 10.6846L161.713 21.6109ZM118.398 24.6747L112.474 20.3102L117.405 8.05016L131.885 18.2691L118.398 24.6747ZM111.149 19.7641L93.3122 27.2705L83.5877 10.6223L115.978 7.75919L111.149 19.7641ZM72.7231 25.296L60.7519 30.2346L55.9237 21.9442L67.0643 16.099L72.7231 25.296ZM64.442 39.4208L42.9405 48.4702L38.0565 41.1487L60.142 32.037L64.442 39.4208ZM42.0383 62.8272L65.9276 52.7953L74.8337 70.0612L59.1322 76.8746L53.2147 113.097L36.7485 103.338L42.0383 62.8272ZM40.7239 61.8246L26.7145 67.7077L27.5171 58.0714L42.0103 51.9711L40.7239 61.8246ZM70.6584 128.435L73.472 133.47L83.5104 131.847L74.1234 147.544L42.9126 129.901L52.7546 117.823L70.6584 128.435ZM75.8836 150.185L80.0438 152.537L72.7066 165.051L68.5686 162.418L75.8836 150.185ZM68.1486 178.492L78.3016 186.411L60.6508 228.782L46.1641 215.987L68.1486 178.492ZM69.1935 212.003L81.1468 215.545L74.1385 233.104L61.8964 229.52L69.1935 212.003ZM82.5271 215.954L90.6476 218.36L83.9769 235.985L75.5202 233.509L82.5271 215.954ZM83.0603 214.617L103.293 163.928L110.013 167.191L91.1565 217.016L83.0603 214.617ZM111.308 167.82L119.096 171.601L104.687 214.743L94.8 211.438L111.308 167.82ZM91.0325 156.381C93.6297 151.622 97.1808 145.157 98.3217 143.181C98.665 143.382 99.1624 143.659 99.8009 144.005C101.044 144.678 102.876 145.643 105.246 146.871C109.234 148.938 114.801 151.784 121.796 155.328C132.221 160.611 142.776 165.906 145.324 167.184L143.088 173.1L160.264 181.927L157.094 188.46L91.0325 156.381ZM159.147 190.795L253.33 218.465L250.803 230.509L152.298 204.91L159.147 190.795ZM255.005 217.463L254.982 217.456L257.138 204.937L216.998 193.425L221.322 182.272L288.834 213.848L288.337 220.637L295.505 223.621L252.265 230.519L255.005 217.463ZM289.842 219.711L290.224 214.498L306.11 221.929L298.201 223.191L289.842 219.711ZM299.606 214.139L309.546 190.793L317.314 194.589L307.366 217.77L299.606 214.139ZM318.603 195.22L338.289 204.84L332.568 219.092L312.247 210.032L318.603 195.22ZM331.824 200.085L264.918 167.39L275.017 139.635L342.308 177.556L331.824 200.085ZM263.623 166.757L249.703 159.955L259.972 131.157L273.75 138.921L263.623 166.757ZM248.407 159.321L233.517 152.045L245.012 122.727L258.705 130.443L248.407 159.321ZM243.654 116.414L239.676 110.433L240.498 107.402L253.655 108.212L243.654 116.414ZM240.881 105.989L242.363 100.527L269.096 95.5488L255.284 106.876L240.881 105.989ZM242.78 98.9909L245.36 89.4807L271.145 82.7233L273.444 91.9819L271.395 93.6625L242.78 98.9909ZM262.479 41.884L277.542 35.4813L274.147 88.8658L262.479 41.884ZM279.017 34.8535L305.346 23.662L326.149 59.8982L277.497 94.4193L275.452 90.942L279.017 34.8535ZM326.865 61.1473L329.66 66.0156L280.301 99.1858L278.227 95.6599L326.865 61.1473ZM393.355 101.372L401.289 105.8L389.806 121.219L381.296 116.374L393.355 101.372ZM380.035 115.656L366.822 108.133L379.172 93.4597L392.085 100.664L380.035 115.656ZM392.996 99.5313L380.112 92.3424L395.053 74.5913L407.764 81.1581L392.996 99.5313ZM394.157 73.4303L365.555 107.411L356.943 102.508L371.336 86.2944L374.887 88.4731L384.513 74.3992L387.273 75.8712L387.948 74.6063L380.488 70.6281L379.814 71.8923L383.241 73.7205L374.474 86.5381L371.062 84.4447L355.941 101.478L349.939 91.1921L375.754 71.9912V58.5243L394.157 55.1108V73.4303ZM354.955 102.632L351.937 106.46L344.399 106.929L335.498 100.214L346.187 92.2062L347.01 93.3708L348.782 92.0529L354.955 102.632ZM334.307 99.3156L326.968 93.7793L340.656 84.3888L345.358 91.0359L334.307 99.3156ZM325.761 92.8691L317.826 86.8843L334.365 75.4957L339.828 83.2185L325.761 92.8691ZM316.621 85.9741L312.404 82.7935L330.787 70.4396L333.536 74.3261L316.621 85.9741ZM311.145 83.6392L315.376 86.8312L288.722 105.185L282.722 102.74L311.145 83.6392ZM300.87 111.685L311.834 116.153L309.893 117.607L299.966 112.304L300.87 111.685ZM302.285 110.713L325.722 94.635L333.113 100.211L313.172 115.15L302.285 110.713ZM334.304 101.109L343.38 107.955L341.92 114.543L328.688 121.474L314.72 115.781L334.304 101.109ZM342.515 115.849L352.914 122.43L346.22 130.384L330.287 122.255L342.515 115.849ZM343.357 114.686L344.762 108.342L352.666 107.851L356.002 103.621L364.617 108.526L353.846 121.323L343.357 114.686ZM365.884 109.247L379.141 116.796L369.263 129.68L355.107 122.05L365.884 109.247ZM380.398 117.512L388.949 122.38L379.554 135.226L370.541 130.369L380.398 117.512ZM390.202 123.095L401.677 129.628L392.875 142.406L380.828 135.913L390.202 123.095ZM402.927 130.339L413.397 136.301L404.993 148.936L394.145 143.09L402.927 130.339ZM402.489 128.44L391.061 121.934L402.552 106.504L413.328 112.517L402.489 128.44ZM402.153 104.64L394.266 100.239L409.064 81.8296L416.341 85.5892L402.153 104.64ZM408.373 79.8595L395.59 73.2554V54.8449L415.023 51.2401L408.373 79.8595ZM373.316 54.6027L368.939 46.0615L384.595 31.9711L392.557 40.0981L396.192 36.7649L407.303 48.2989L373.316 54.6027ZM371.846 54.8758L371.454 54.9481V69.8304L347.977 87.292L336.864 71.5848L354.302 43.733L367.568 46.5287L371.846 54.8758ZM367.394 45.0273L353.618 42.1241L335.968 70.3171L331.873 64.5293L330.853 65.2144L306.674 23.0973L311.531 21.0326L303.44 12.7794L355.046 -2.4999L363.441 9.22191L369.144 21.0068L367.394 45.0273ZM365.118 9.3975L380.385 5.40351L370.001 19.486L365.118 9.3975ZM373.477 -19.8404L378.79 -18.1003L364.51 5.79194L361.033 0.935806L373.477 -19.8404ZM366.968 -21.9717L372.08 -20.2976L360.122 -0.334127L356.87 -4.87565L366.968 -21.9717ZM353.999 -26.218L365.573 -22.4283L355.678 -5.67688L339.247 -0.812143L336.255 -10.7523L353.999 -26.218ZM335.639 -22.305L340.569 -16.4133L334.616 -11.2246L337.873 -0.405077L298.057 11.3834L306.542 20.0386L288.81 27.5758L283.091 22.1578L335.639 -22.305ZM287.055 16.9254L280.943 22.0976L287.372 28.1878L261.967 38.9865L260.395 26.1295L279.65 9.3373L287.055 16.9254ZM298.868 -20.79V-9.32543L259.96 24.608L259.092 22.1807L268.866 3.38824L265.875 -5.86823L298.868 -20.79ZM267.318 3.25853L257.917 21.3343L238.707 18.09L236.82 7.27258L264.561 -5.2734L267.318 3.25853ZM264.117 -6.64581L236.567 5.81488L235.761 1.19667L262.851 -10.561L264.117 -6.64581ZM259.428 -21.1519L262.408 -11.9312L235.508 -0.25601L233.952 -9.17708L259.428 -21.1519ZM233.054 -26.6079L239.344 -14.8789L228.949 -9.99337L222.53 -21.6098L233.054 -26.6079ZM221.233 -20.9935L227.649 -9.38205L216.107 -3.95688L209.632 -15.483L221.233 -20.9935ZM208.334 -14.8667L214.807 -3.34556L206.006 0.79104L199.348 -10.5989L208.334 -14.8667ZM198.049 -9.9819L204.704 1.40379L196.221 5.39061L189.649 -5.99293L198.049 -9.9819ZM188.35 -5.37588L194.919 6.00264L185.26 10.5427L178.485 -0.689594L188.35 -5.37588ZM173.023 -25.7923L186.732 -7.78102L176.856 -3.08971L165.315 -18.0272L173.023 -25.7923ZM164.297 -17.0009L175.53 -2.46048L168.552 0.854109L158.459 -11.12L164.297 -17.0009ZM157.445 -10.0987L167.213 1.48979L161.394 4.25398L152.853 -5.47263L157.445 -10.0987ZM151.841 -4.45353L160.048 4.89324L153.886 7.8194L146.051 1.37871L151.841 -4.45353ZM131.856 -8.25401H132.074L152.456 8.49879L133.371 17.5632L118.154 6.82466L131.856 -8.25401ZM129.92 -8.25401L116.736 6.25348L77.0009 9.76586L85.1716 -7.61188L112.776 -8.25401H129.92ZM90.639 -19.2391L122.776 -20.1399L112.462 -9.6809L85.8531 -9.06098L90.639 -19.2391ZM87.7817 -16.5308L80.9519 -2.0054L75.0866 -9.03375L87.7817 -16.5308ZM73.8361 -8.29486L80.2789 -0.574211L75.2723 10.074L72.1605 11.7926L62.2203 -1.43493L73.8361 -8.29486ZM50.9579 -14.0361L60.1126 -1.85418L46.817 5.99834L38.0686 -5.72776L50.9579 -14.0361ZM32.5797 15.3L23.8492 3.43841L36.8611 -4.94946L46.4379 7.88676L60.9791 -0.701061L70.8827 12.4777L47.586 24.7005L39.1465 11.8076L38.303 12.2212L32.5797 15.3ZM14.1871 42.4186L32.0013 34.6657L39.0856 14.331L47.0994 26.5739L54.653 22.6107L59.4139 30.7864L35.8943 40.4908L41.5946 49.0363L27.7852 54.8478L27.8217 54.4092L14.1871 42.4186ZM24.3595 95.9931L26.5805 69.318L40.5096 63.4693L35.4069 102.542L24.3595 95.9931ZM34.9361 107.261L51.5076 117.084L40.7282 130.314L73.3874 148.774L66.1735 160.837L45.8789 146.968L19.4654 146.223L36.8725 126.302L24.5845 118.752L34.9361 107.261ZM15.4191 173.561L21.9013 166.252L0.4386 145.555L23.6084 119.835L34.6774 126.636L16.3852 147.57L45.4181 148.389L53.5866 153.971L24.1581 182.677L15.4191 173.561ZM24.123 184.711L24.1244 184.713L40.5476 168.693L45.3528 175.36L55.3195 168.488L59.6009 171.827L36.6633 210.183L33.0111 212.785L17.6071 191.034L24.123 184.711ZM9.90721 198.506L16.5665 192.044L31.8437 213.617L23.9223 219.262L9.90721 198.506ZM22.3328 230.276L16.5357 228.046L38.8161 212.168L61.8792 173.603L65.8682 176.714L43.6142 214.67L22.3328 230.276ZM54.9053 242.576L25.5255 231.489L45.2088 217.055L60.0689 230.18L54.9053 242.576ZM68.8165 246.437L56.2748 243.014L61.3417 230.85L73.6046 234.442L68.8165 246.437ZM78.9724 249.207L70.2083 246.816L74.9863 234.846L83.4681 237.33L78.9724 249.207ZM91.99 252.759L80.362 249.586L84.8477 237.734L95.9252 240.977L91.99 252.759ZM96.3795 239.617L85.3565 236.389L94.2919 212.78L104.233 216.103L96.3795 239.617ZM141.455 252.816L97.7555 240.02L120.396 172.233L129.163 176.491L115.57 217.24L115.498 217.455L119.34 230.206L131.958 232.189L134.619 225.372L145.657 226.687L141.455 252.816ZM145.884 225.27L133.686 223.817L131.042 230.593L120.877 228.996L128.12 209.685L134.571 212.044L138.36 202.546L143.725 204.627L144.244 203.291L132.06 198.567L131.542 199.903L137.023 202.028L133.756 210.221L127.278 207.851L119.971 227.329L117.002 217.477L130.464 177.122L156.468 189.75L149.181 204.764L145.884 225.27ZM221.164 245.301V234.236L148.734 225.609L151.842 206.272L250.508 231.913L250.434 232.263L308.423 223.011L321.134 228.956L221.164 245.301ZM352.45 238.856L308.666 218.377L311.681 211.349L355.612 230.936L352.45 238.856ZM356.143 229.604L333.878 219.676L339.58 205.47L361.501 216.182L356.143 229.604ZM357.431 230.244L363.079 216.097L371.917 194.241L385.532 201.914L371.194 237.943L357.431 230.244ZM414.458 218.214L399.403 253.721L386.772 246.656L401.753 211.055L414.458 218.214ZM400.496 210.346L385.512 245.951L372.456 238.649L386.792 202.624L400.496 210.346ZM372.173 172.363L393.935 183.962L386.109 200.594L364.484 188.407L372.173 172.363ZM370.908 171.688L363.233 187.702L323.162 165.121L331.693 150.787L370.908 171.688ZM330.427 150.111L321.913 164.417L304.649 154.689L314.843 141.805L330.427 150.111ZM303.385 153.976L245.54 121.379L246.091 119.976L274.053 97.0444L278.91 105.302L281.08 103.843L324.644 127.109L303.385 153.976ZM325.494 125.938L311.289 118.352L313.382 116.784L327.654 122.601L325.494 125.938ZM326.763 126.616L328.976 123.196L345.272 131.51L342.374 134.953L326.763 126.616ZM343.666 135.643L354.165 123.171L368.38 130.832L358.584 143.611L343.666 135.643ZM359.866 144.295L369.658 131.521L378.701 136.394L369.256 149.31L359.866 144.295ZM370.533 149.992L379.974 137.081L392.058 143.593L383.047 156.675L370.533 149.992ZM407.389 169.675L384.319 157.354L393.327 144.277L404.195 150.135L395.625 163.021L396.818 163.815L405.463 150.818L415.583 156.272L407.389 169.675ZM424.076 142.382L416.332 155.047L406.26 149.619L414.646 137.012L424.076 142.382ZM424.804 118.92L414.188 135.102L403.738 129.152L414.585 113.218L424.804 118.92ZM427.673 91.4444L414.138 111.327L403.415 105.345L417.631 86.2565L427.673 91.4444ZM426.244 49.1589L416.943 84.2871L409.687 80.5389L416.561 50.9549L426.244 49.1589ZM418.761 46.1733L408.991 47.9857L397.249 35.7959L402.604 30.8868L418.761 46.1733ZM405.99 25.8386L392.61 38.1043L384.657 29.9866L368.894 44.1738L370.573 21.1258L382.592 4.82659L383.216 4.66319L395.743 16.0883L405.99 25.8386ZM396.164 14.5324L384.868 4.23104L410.627 -2.50706L396.164 14.5324ZM398.956 -8.28268H421.378L394.663 -1.29446L392.751 -6.19646L398.956 -8.28268ZM393.267 -0.928961L384.545 1.35219L389.835 -9.73035L393.267 -0.928961Z" fill="white" fill-opacity="0.02"/>
<mask id="mask0_25_97" style="mask-type:alpha" maskUnits="userSpaceOnUse" x="217" y="0" width="213" height="169">
<path d="M326.977 93.8724C301.567 81.5807 306.779 54.1548 338.625 32.6138C365.814 14.2227 403.624 6.07372 429.915 11.7357V0H396.679C372.32 3.63078 346.715 12.9497 325.987 26.9706C285.677 54.2371 220.777 163.496 217.786 168.897C225.867 166.528 375.356 118.444 429.915 90.5494V77.6132C398.093 98.7787 352.194 106.071 326.977 93.8724Z" fill="url(#paint0_radial_25_97)"/>
</mask>
<g mask="url(#mask0_25_97)">
<path d="M326.977 93.8724C301.567 81.5807 306.779 54.1548 338.625 32.6138C365.814 14.2227 403.624 6.07372 429.915 11.7357V0H396.679C372.32 3.63078 346.715 12.9497 325.987 26.9706C285.677 54.2371 220.777 163.496 217.786 168.897C225.867 166.528 375.356 118.444 429.915 90.5494V77.6132C398.093 98.7787 352.194 106.071 326.977 93.8724Z" fill="url(#paint1_linear_25_97)"/>
</g>
<path d="M226.32 58.2245L202.326 72.1427C198.358 74.4442 195.898 79.3386 195.878 86.2944C195.838 100.298 205.703 117.354 217.912 124.389C224.055 127.929 229.622 128.258 233.641 125.926L257.635 112.008C253.616 114.34 248.05 114.011 241.906 110.471C229.698 103.435 219.832 86.3801 219.872 72.3763C219.892 65.4204 222.352 60.5264 226.32 58.2245Z" fill="#0BA578"/>
<path d="M245.967 115.339L269.961 101.42C269.911 119.147 243.186 153.148 241.78 154.938L217.785 168.856C219.192 167.066 245.917 133.064 245.967 115.339Z" fill="#064533"/>
<path d="M198.163 65.1693L222.157 51.2511C227.245 48.2994 234.292 48.7156 242.068 53.1975L218.075 67.1157C210.298 62.6338 203.251 62.218 198.163 65.1693Z" fill="#2C7A2D"/>
<path d="M190 83.0857C189.95 100.812 216.394 165.454 217.786 168.856C219.192 167.066 245.917 133.065 245.967 115.339C246.018 97.6125 233.53 76.0226 218.075 67.1163C202.62 58.2099 190.05 65.3598 190 83.0857ZM240.089 111.773C240.05 125.777 230.121 131.425 217.912 124.389C205.703 117.354 195.838 100.299 195.878 86.295C195.917 72.2924 205.847 66.645 218.056 73.6808C230.265 80.7161 240.129 97.7706 240.089 111.773Z" fill="#A8FFA9"/>
<path d="M218.075 67.1157L242.069 53.1975C257.524 62.1039 270.012 83.6941 269.961 101.42L245.967 115.338C246.018 97.6123 233.53 76.0225 218.075 67.1157Z" fill="#67FFB2"/>
<path d="M241.78 154.937C243.186 153.148 269.911 119.146 269.961 101.42C270.011 83.6937 257.524 62.1039 242.068 53.1975C234.292 48.7156 227.245 48.2994 222.157 51.2511L198.162 65.1693C203.251 62.2176 210.297 62.6338 218.075 67.1157C233.53 76.0221 246.017 97.6123 245.967 115.338C245.917 133.065 219.192 167.066 217.785 168.855L241.78 154.937Z" fill="#5AE0AE"/>
<path d="M32.984 41.016H28.792L28.12 43H25.256L29.32 31.768H32.488L36.552 43H33.656L32.984 41.016ZM32.28 38.904L30.888 34.792L29.512 38.904H32.28ZM37.2449 38.52C37.2449 37.6027 37.4155 36.7973 37.7569 36.104C38.1089 35.4107 38.5835 34.8773 39.1809 34.504C39.7782 34.1307 40.4449 33.944 41.1809 33.944C41.7675 33.944 42.3009 34.0667 42.7809 34.312C43.2715 34.5573 43.6555 34.888 43.9329 35.304V31.16H46.6689V43H43.9329V41.72C43.6769 42.1467 43.3089 42.488 42.8289 42.744C42.3595 43 41.8102 43.128 41.1809 43.128C40.4449 43.128 39.7782 42.9413 39.1809 42.568C38.5835 42.184 38.1089 41.6453 37.7569 40.952C37.4155 40.248 37.2449 39.4373 37.2449 38.52ZM43.9329 38.536C43.9329 37.8533 43.7409 37.3147 43.3569 36.92C42.9835 36.5253 42.5249 36.328 41.9809 36.328C41.4369 36.328 40.9729 36.5253 40.5889 36.92C40.2155 37.304 40.0289 37.8373 40.0289 38.52C40.0289 39.2027 40.2155 39.7467 40.5889 40.152C40.9729 40.5467 41.4369 40.744 41.9809 40.744C42.5249 40.744 42.9835 40.5467 43.3569 40.152C43.7409 39.7573 43.9329 39.2187 43.9329 38.536ZM48.1043 38.52C48.1043 37.6027 48.2749 36.7973 48.6163 36.104C48.9683 35.4107 49.4429 34.8773 50.0403 34.504C50.6376 34.1307 51.3043 33.944 52.0403 33.944C52.6269 33.944 53.1603 34.0667 53.6403 34.312C54.1309 34.5573 54.5149 34.888 54.7923 35.304V31.16H57.5283V43H54.7923V41.72C54.5363 42.1467 54.1683 42.488 53.6883 42.744C53.2189 43 52.6696 43.128 52.0403 43.128C51.3043 43.128 50.6376 42.9413 50.0403 42.568C49.4429 42.184 48.9683 41.6453 48.6163 40.952C48.2749 40.248 48.1043 39.4373 48.1043 38.52ZM54.7923 38.536C54.7923 37.8533 54.6003 37.3147 54.2163 36.92C53.8429 36.5253 53.3843 36.328 52.8403 36.328C52.2963 36.328 51.8323 36.5253 51.4483 36.92C51.0749 37.304 50.8883 37.8373 50.8883 38.52C50.8883 39.2027 51.0749 39.7467 51.4483 40.152C51.8323 40.5467 52.2963 40.744 52.8403 40.744C53.3843 40.744 53.8429 40.5467 54.2163 40.152C54.6003 39.7573 54.7923 39.2187 54.7923 38.536ZM62.2436 35.56C62.5636 35.0693 62.9636 34.6853 63.4436 34.408C63.9236 34.12 64.457 33.976 65.0436 33.976V36.872H64.2916C63.609 36.872 63.097 37.0213 62.7556 37.32C62.4143 37.608 62.2436 38.12 62.2436 38.856V43H59.5076V34.072H62.2436V35.56ZM74.7674 38.392C74.7674 38.648 74.7514 38.9147 74.7194 39.192H68.5274C68.57 39.7467 68.746 40.1733 69.0554 40.472C69.3754 40.76 69.7647 40.904 70.2234 40.904C70.906 40.904 71.3807 40.616 71.6474 40.04H74.5594C74.41 40.6267 74.138 41.1547 73.7434 41.624C73.3594 42.0933 72.874 42.4613 72.2874 42.728C71.7007 42.9947 71.0447 43.128 70.3194 43.128C69.4447 43.128 68.666 42.9413 67.9834 42.568C67.3007 42.1947 66.7674 41.6613 66.3834 40.968C65.9994 40.2747 65.8074 39.464 65.8074 38.536C65.8074 37.608 65.994 36.7973 66.3674 36.104C66.7514 35.4107 67.2847 34.8773 67.9674 34.504C68.65 34.1307 69.434 33.944 70.3194 33.944C71.1834 33.944 71.9514 34.1253 72.6234 34.488C73.2954 34.8507 73.818 35.368 74.1914 36.04C74.5754 36.712 74.7674 37.496 74.7674 38.392ZM71.9674 37.672C71.9674 37.2027 71.8074 36.8293 71.4874 36.552C71.1674 36.2747 70.7674 36.136 70.2874 36.136C69.8287 36.136 69.4394 36.2693 69.1194 36.536C68.81 36.8027 68.618 37.1813 68.5434 37.672H71.9674ZM79.8428 43.128C79.0641 43.128 78.3708 42.9947 77.7628 42.728C77.1548 42.4613 76.6748 42.0987 76.3228 41.64C75.9708 41.1707 75.7734 40.648 75.7308 40.072H78.4348C78.4668 40.3813 78.6108 40.632 78.8668 40.824C79.1228 41.016 79.4374 41.112 79.8108 41.112C80.1521 41.112 80.4134 41.048 80.5948 40.92C80.7868 40.7813 80.8828 40.6053 80.8828 40.392C80.8828 40.136 80.7494 39.9493 80.4828 39.832C80.2161 39.704 79.7841 39.5653 79.1868 39.416C78.5468 39.2667 78.0134 39.112 77.5868 38.952C77.1601 38.7813 76.7921 38.52 76.4828 38.168C76.1734 37.8053 76.0188 37.32 76.0188 36.712C76.0188 36.2 76.1574 35.736 76.4348 35.32C76.7228 34.8933 77.1388 34.5573 77.6828 34.312C78.2374 34.0667 78.8934 33.944 79.6508 33.944C80.7708 33.944 81.6508 34.2213 82.2908 34.776C82.9414 35.3307 83.3148 36.0667 83.4108 36.984H80.8828C80.8401 36.6747 80.7014 36.4293 80.4668 36.248C80.2428 36.0667 79.9441 35.976 79.5708 35.976C79.2508 35.976 79.0054 36.04 78.8348 36.168C78.6641 36.2853 78.5788 36.4507 78.5788 36.664C78.5788 36.92 78.7121 37.112 78.9788 37.24C79.2561 37.368 79.6828 37.496 80.2588 37.624C80.9201 37.7947 81.4588 37.9653 81.8748 38.136C82.2908 38.296 82.6534 38.5627 82.9628 38.936C83.2828 39.2987 83.4481 39.7893 83.4588 40.408C83.4588 40.9307 83.3094 41.4 83.0108 41.816C82.7228 42.2213 82.3014 42.5413 81.7468 42.776C81.2028 43.0107 80.5681 43.128 79.8428 43.128ZM88.7646 43.128C87.986 43.128 87.2926 42.9947 86.6846 42.728C86.0766 42.4613 85.5966 42.0987 85.2446 41.64C84.8926 41.1707 84.6953 40.648 84.6526 40.072H87.3566C87.3886 40.3813 87.5326 40.632 87.7886 40.824C88.0446 41.016 88.3593 41.112 88.7326 41.112C89.074 41.112 89.3353 41.048 89.5166 40.92C89.7086 40.7813 89.8046 40.6053 89.8046 40.392C89.8046 40.136 89.6713 39.9493 89.4046 39.832C89.138 39.704 88.706 39.5653 88.1086 39.416C87.4686 39.2667 86.9353 39.112 86.5086 38.952C86.082 38.7813 85.714 38.52 85.4046 38.168C85.0953 37.8053 84.9406 37.32 84.9406 36.712C84.9406 36.2 85.0793 35.736 85.3566 35.32C85.6446 34.8933 86.0606 34.5573 86.6046 34.312C87.1593 34.0667 87.8153 33.944 88.5726 33.944C89.6926 33.944 90.5726 34.2213 91.2126 34.776C91.8633 35.3307 92.2366 36.0667 92.3326 36.984H89.8046C89.762 36.6747 89.6233 36.4293 89.3886 36.248C89.1646 36.0667 88.866 35.976 88.4926 35.976C88.1726 35.976 87.9273 36.04 87.7566 36.168C87.586 36.2853 87.5006 36.4507 87.5006 36.664C87.5006 36.92 87.634 37.112 87.9006 37.24C88.178 37.368 88.6046 37.496 89.1806 37.624C89.842 37.7947 90.3806 37.9653 90.7966 38.136C91.2126 38.296 91.5753 38.5627 91.8846 38.936C92.2046 39.2987 92.37 39.7893 92.3806 40.408C92.3806 40.9307 92.2313 41.4 91.9326 41.816C91.6446 42.2213 91.2233 42.5413 90.6686 42.776C90.1246 43.0107 89.49 43.128 88.7646 43.128Z" fill="white"/>
</g>
<defs>
<radialGradient id="paint0_radial_25_97" cx="0" cy="0" r="1" gradientUnits="userSpaceOnUse" gradientTransform="translate(558.384 -118.421) scale(618.91 610.684)">
<stop/>
<stop offset="0.1656" stop-color="#414141"/>
<stop offset="0.331" stop-color="#7B7B7B"/>
<stop offset="0.4899" stop-color="#AAAAAA"/>
<stop offset="0.64" stop-color="#CFCFCF"/>
<stop offset="0.7791" stop-color="#E9E9E9"/>
<stop offset="0.9032" stop-color="#F9F9F9"/>
<stop offset="1" stop-color="white"/>
</radialGradient>
<linearGradient id="paint1_linear_25_97" x1="429.976" y1="1.32838e-06" x2="221.251" y2="169.139" gradientUnits="userSpaceOnUse">
<stop stop-color="#89E8CD" stop-opacity="0"/>
<stop offset="0.244751" stop-color="#89E8CD" stop-opacity="0.06"/>
<stop offset="0.467181" stop-color="#89E8CD" stop-opacity="0.18"/>
<stop offset="1" stop-color="#89E8CD"/>
</linearGradient>
<clipPath id="clip0_25_97">
<rect width="430" height="233" fill="white"/>
</clipPath>
</defs>
</svg>
