<svg width="27" height="20" viewBox="0 0 27 20" fill="none" xmlns="http://www.w3.org/2000/svg">
<path d="M26.9617 13.392C26.9617 17.0025 24.0242 19.94 20.4137 19.94L6.798 19.9403C3.1875 19.9403 0.25 17.0028 0.25 13.3923V11.4004C0.25 10.0549 1.34457 8.96036 2.69 8.96036H24.5221C25.8676 8.96036 26.9621 10.0549 26.9621 11.4004L26.9617 13.392ZM25.5279 0.529864C25.2338 0.173278 24.8772 0.000284467 24.4377 0.000284467C23.6341 0.000284467 22.8961 0.107427 22.2446 0.318642L22.0795 0.372213C21.8004 0.474056 21.5264 0.604356 21.2589 0.76507C20.5672 1.17216 19.712 1.16769 19.031 0.766744C18.7754 0.610773 18.4955 0.477123 18.1936 0.366352L18.0544 0.322546C17.3911 0.107703 16.6545 0.000560216 15.8535 0.000560216C14.4835 0.000560216 14.0837 1.83206 13.9668 2.94506C14.0354 3.67635 14.0368 4.46435 13.9704 5.23242C13.9738 5.2726 13.9796 5.31277 13.9835 5.35295H15.0338C15.0374 5.35295 15.0405 5.351 15.0441 5.351H17.2442V4.72544C17.2442 4.26981 17.6136 3.90037 18.0692 3.90037C18.5249 3.90037 18.8943 4.26979 18.8943 4.72544V4.95033H21.3943V4.72544C21.3943 4.26981 21.7637 3.90037 22.2194 3.90037C22.675 3.90037 23.0444 4.26979 23.0444 4.72544V5.351H26.3095C26.4794 3.70314 26.3533 1.53043 25.528 0.529857L25.5279 0.529864ZM14.0821 6.07258C14.0911 6.12392 14.098 6.17805 14.1075 6.22799C14.268 7.06756 14.6022 7.66913 14.9725 8.23999H25.3153C25.6856 7.66856 26.0204 7.06728 26.1845 6.22714C26.1965 6.16547 26.2068 6.09906 26.2179 6.03433H23.0447V6.69979C23.0447 7.15543 22.6752 7.52486 22.2196 7.52486C21.7639 7.52486 21.3945 7.15544 21.3945 6.69979V6.47491H18.8945V6.69979C18.8945 7.15543 18.5251 7.52486 18.0694 7.52486C17.6138 7.52486 17.2444 7.15544 17.2444 6.69979V6.07228L14.0821 6.07258ZM4.16786 6.07258H1.00071C1.00964 6.1242 1.01801 6.17833 1.02778 6.22799C1.19157 7.06756 1.52639 7.66913 1.89664 8.24028H12.2395C12.6098 7.66885 12.9446 7.06756 13.1086 6.22742C13.1181 6.17748 13.1254 6.12363 13.1343 6.07284H9.96745V6.70036C9.96745 7.15599 9.59803 7.52543 9.14238 7.52543C8.68673 7.52543 8.3173 7.15601 8.3173 6.70036V6.47547H5.81731V6.70036C5.81731 7.15599 5.44789 7.52543 4.99224 7.52543C4.53659 7.52543 4.16716 7.15601 4.16716 6.70036V6.07284L4.16786 6.07258ZM13.2486 5.23522C13.1981 4.68806 13.159 3.85629 13.2449 2.94143C13.1308 1.82901 12.7341 6.53948e-06 11.3585 6.53948e-06C10.5574 6.53948e-06 9.82116 0.107148 9.16959 0.318363L9.09062 0.343474C9.05882 0.354356 9.02645 0.36468 8.99324 0.374166C8.71646 0.476845 8.4366 0.610495 8.18631 0.763395C7.49519 1.17048 6.64196 1.1702 5.9561 0.766185C5.68573 0.6038 5.41174 0.473492 5.11596 0.366349L4.97952 0.321987C4.31629 0.107144 3.57966 0 2.77866 0C2.33753 0 1.98009 0.173829 1.68516 0.53125C0.859302 1.53239 0.733444 3.70539 0.902801 5.35268H4.16816V4.72517C4.16816 4.26953 4.53758 3.90009 4.99323 3.90009C5.44888 3.90009 5.8183 4.26952 5.8183 4.72517V4.95005H8.3183V4.72517C8.3183 4.26953 8.68772 3.90009 9.14337 3.90009C9.59901 3.90009 9.96844 4.26952 9.96844 4.72517V5.35268H13.2354C13.2391 5.31306 13.2447 5.27511 13.2486 5.23521L13.2486 5.23522Z" fill="#6B5AE0"/>
</svg>
