<svg width="23" height="34" viewBox="0 0 23 34" fill="none" xmlns="http://www.w3.org/2000/svg">
<path d="M21.7032 8.59462C20.6517 6.86925 19.0046 5.79755 17.4043 5.79755C17.174 5.79755 16.9711 5.94912 16.9057 6.16987C15.7209 10.1726 14.0459 10.9767 11.7272 10.9767C9.40847 10.9767 7.7335 10.1727 6.54853 6.17011C6.48307 5.94936 6.28019 5.79778 6.04993 5.79778C4.44988 5.79778 2.80254 6.86949 1.75097 8.59486C0.929499 9.94307 0.502123 11.6004 0.515375 13.388C0.530695 15.4451 1.11353 17.6036 2.24841 19.804C4.15229 23.4966 4.41042 26.6716 4.59892 28.9903C4.70175 30.2563 4.78299 31.2561 5.10077 31.9968C5.48656 32.8963 6.19779 33.3333 7.27461 33.3333C8.44544 33.3333 9.34885 32.5464 9.95985 30.9942C10.4427 29.7674 10.7034 28.205 10.9332 26.8267C11.0713 25.9994 11.2015 25.2178 11.3605 24.6266C11.5267 24.0087 11.6701 23.8126 11.7272 23.7552C11.7844 23.8126 11.9278 24.0087 12.094 24.6266C12.253 25.2178 12.3832 25.9992 12.5213 26.8267C12.7511 28.205 13.0118 29.7674 13.4946 30.9942C14.1053 32.5464 15.009 33.3333 16.1799 33.3333C17.2567 33.3333 17.968 32.8962 18.3537 31.9968C18.6715 31.2561 18.7528 30.2561 18.8556 28.9903C19.0441 26.6718 19.302 23.4964 21.2061 19.804C22.3407 17.6037 22.9238 15.4451 22.9391 13.388C22.9521 11.6002 22.525 9.94277 21.7032 8.59462Z" fill="#6B5AE0"/>
<path d="M17.8211 0.542254C17.7229 0.410874 17.5685 0.333344 17.4044 0.333344C15.3958 0.333344 14.4365 0.881391 13.6656 1.3215C13.0711 1.66133 12.6016 1.92941 11.7274 1.92941C10.8532 1.92941 10.3836 1.66107 9.78891 1.3215C9.018 0.881159 8.0589 0.333344 6.05008 0.333344C5.88597 0.333344 5.73161 0.410642 5.63342 0.542254C5.53523 0.673634 5.50482 0.843782 5.55148 1.00093C6.17798 3.11695 6.96487 4.51341 8.02779 5.3955C8.87107 6.0951 9.89126 6.46281 11.2074 6.53733V8.0587L10.7973 7.64853C10.5942 7.44542 10.265 7.44542 10.0619 7.64853C9.85879 7.85164 9.85879 8.18079 10.0619 8.3839L11.3597 9.68172C11.6048 9.89945 11.85 9.89945 12.0951 9.68172L13.3929 8.3839C13.596 8.18079 13.596 7.85164 13.3929 7.64853C13.1898 7.44542 12.8606 7.44542 12.6575 7.64853L12.2474 8.0587V6.53733C13.5635 6.46282 14.5837 6.09513 15.4268 5.3955C16.4899 4.51341 17.2768 3.11695 17.9031 1.00093C17.9497 0.843556 17.9193 0.67364 17.8211 0.542254Z" fill="#6B5AE0"/>
</svg>
