<svg width="37" height="27" viewBox="0 0 37 27" fill="none" xmlns="http://www.w3.org/2000/svg">
<path d="M18.0482 1.61146C16.7467 1.7186 15.4955 2.15108 14.415 2.86703C13.6631 3.37289 12.802 3.70353 11.8982 3.83353C10.9945 3.70351 10.1334 3.37287 9.38119 2.86703C8.30069 2.1511 7.04946 1.7186 5.74822 1.61146C2.51361 1.61146 0.509078 3.93374 0.509078 7.65581C0.413555 11.2047 1.07277 14.7345 2.44523 18.0222L6.08962 25.4222C6.18256 25.6203 6.33414 25.7866 6.5249 25.8996C6.71594 26.0126 6.9373 26.0671 7.16038 26.0556C7.38431 26.0447 7.60052 25.9705 7.78241 25.8424C7.96431 25.7144 8.10415 25.5375 8.18538 25.3332L10.896 18.3221C11.1236 17.5333 11.5566 17.1664 11.8869 17.1664C12.2173 17.1664 12.6614 17.533 12.9348 18.4108L15.6111 25.333L15.6108 25.3332C15.6918 25.5375 15.8319 25.7144 16.0138 25.8424C16.1957 25.9705 16.4116 26.0447 16.6358 26.0556H16.6813C16.8958 26.0545 17.1057 25.9945 17.2871 25.8826C17.4684 25.7705 17.6137 25.6109 17.7063 25.4222L21.3507 18.0222C22.7232 14.7343 23.3824 11.2045 23.2869 7.65581C23.2869 3.93374 21.2823 1.61145 18.048 1.61145L18.0482 1.61146Z" fill="#6B5AE0"/>
<path d="M35.8145 22.7222H32.398V20.5001H34.6756C34.9773 20.499 35.2665 20.3818 35.4798 20.1737C35.6934 19.9655 35.8135 19.6834 35.8144 19.3888V16.0557H32.3979C31.991 16.0557 31.6149 15.8439 31.4115 15.5001C31.2082 15.1561 31.2082 14.7326 31.4115 14.3888C31.6149 14.045 31.9909 13.8333 32.3979 13.8333H35.8147L35.8144 11.6112H32.3979C31.991 11.6112 31.6149 11.3994 31.4115 11.0557C31.2082 10.7119 31.2082 10.2884 31.4115 9.9443C31.6149 9.60055 31.9909 9.38878 32.3979 9.38878H35.8147L35.8144 8.27771C35.8118 7.39435 35.4509 6.54807 34.8109 5.92364C34.1708 5.29892 33.3031 4.94707 32.3979 4.94428V1.61114C32.3979 1.2141 32.1809 0.847212 31.8285 0.648784C31.4759 0.450405 31.0418 0.450405 30.6894 0.648784C30.337 0.847162 30.12 1.21408 30.12 1.61114V4.94457V4.94429C29.2148 4.94708 28.3471 5.29892 27.7071 5.92365C27.0667 6.54809 26.7061 7.39436 26.7035 8.27772V19.3884C26.7044 19.6831 26.8245 19.9652 27.0378 20.1733C27.2515 20.3814 27.5406 20.4986 27.8423 20.4997H30.1199V22.7218H26.7035C26.2965 22.7218 25.9204 22.9336 25.717 23.2773C25.5134 23.6211 25.5134 24.0446 25.717 24.3884C25.9204 24.7322 26.2965 24.9439 26.7035 24.9439H35.815H35.8147C36.2217 24.9439 36.5977 24.7322 36.8011 24.3884C37.0045 24.0447 37.0045 23.6211 36.8011 23.2773C36.5978 22.9336 36.2217 22.7218 35.8147 22.7218L35.8145 22.7222Z" fill="#6B5AE0"/>
</svg>
