<svg width="27" height="30" viewBox="0 0 27 30" fill="none" xmlns="http://www.w3.org/2000/svg">
<path d="M25.1002 12.7913L25.2355 12.5714C26.0466 11.1208 26.7673 9.84625 26.8125 6.76925V6.46149V6.28571C26.7224 4.08786 25.9113 2.54936 24.1994 1.4065C22.8026 0.4835 20.8653 0 18.7478 0H18.7026C17.2609 0 15.774 0.219864 14.5574 0.659321C16.2245 1.75811 17.3058 2.85718 17.3959 2.94504C17.7114 3.25279 17.7114 3.73632 17.3959 4.04382C17.2607 4.1758 17.0356 4.26369 16.8554 4.26369C16.6301 4.26369 16.4499 4.17579 16.2697 4.04382C16.1793 3.91212 10.5924 -2.54939 3.11309 1.40682C1.31077 2.37389 0.590054 4.08818 0.5 6.28604V6.76957C0.545187 9.84657 1.22099 11.0774 2.07696 12.5717L2.21224 12.7916C2.30233 12.9236 2.34752 13.0114 2.4376 13.1431H7.88921C7.9793 13.1431 8.52011 13.0991 8.70028 12.6596V11.2969C8.70028 11.077 8.70028 10.4177 9.1959 9.84625C9.46617 9.58258 9.9618 9.23073 10.8177 9.23073H16.5848C17.4408 9.23073 17.9364 9.5823 18.2067 9.84625C18.7023 10.3736 18.7023 11.077 18.7023 11.2969V12.6596C18.8825 13.1431 19.4233 13.1431 19.5134 13.1431H24.965C24.9195 13.0112 25.0099 12.9233 25.1 12.7913L25.1002 12.7913Z" fill="#6B5AE0"/>
<path d="M21.676 27.6041C22.3969 26.4172 23.2978 23.9997 23.2978 19.3841C23.2978 17.3182 23.6582 15.8235 24.1537 14.6369L19.4232 14.6371H19.378C18.7471 14.6371 17.4855 14.2856 17.1252 12.9669C17.1252 12.879 17.08 12.835 17.08 12.7471V11.2526V11.1647C17.08 11.1207 17.08 10.9449 16.9899 10.8132C16.8998 10.7253 16.6295 10.6812 16.5394 10.6812L10.7724 10.6809C10.6371 10.6809 10.412 10.6809 10.3219 10.8129C10.2318 10.9008 10.2318 11.1207 10.2318 11.1645V11.2524V12.7468C10.2318 12.8347 10.2318 12.8788 10.1866 12.9667C9.7811 14.2853 8.47468 14.6369 7.88896 14.6369H3.20325C3.69887 15.8238 4.05919 17.3182 4.01431 19.3841C4.01431 23.9996 4.87026 26.417 5.63616 27.6041C6.44723 28.9227 6.89764 29.4504 8.24925 29.4504C9.51073 29.4504 10.2317 28.3954 10.3219 27.3845C10.3671 26.8572 10.3671 26.1976 10.412 25.5382C10.4571 23.9997 10.4571 22.1097 11.0878 20.0876C11.3131 19.3404 11.6283 18.4174 12.1691 17.6261C12.4846 17.1425 13.2053 16.659 13.8811 16.659C14.4216 16.659 14.9172 16.9668 15.2779 17.582C15.8184 18.4171 16.1338 19.2963 16.3593 20.1314C16.945 22.0655 17.2152 24.3072 17.0351 26.1534C16.945 27.3404 17.1704 28.2193 17.7109 28.7907C18.2514 29.4062 18.9275 29.45 19.1525 29.45C20.3243 29.4503 20.8648 28.923 21.6759 27.604L21.676 27.6041Z" fill="#6B5AE0"/>
</svg>
